<svg version="1.1" id="Layer_1" xmlns="http://www.w3.org/2000/svg" xmlns:xlink="http://www.w3.org/1999/xlink" x="0px" y="0px"
	 width="100%" viewBox="0 0 512 512" enable-background="new 0 0 512 512" xml:space="preserve">
<path fill="#DEEEFF" opacity="1.000000" stroke="none" 
	d="
M288.000000,513.000000 
	C267.312439,513.000000 246.624878,513.000000 225.776703,512.640869 
	C225.110458,511.870178 224.657318,511.200287 224.091476,511.085419 
	C212.270081,508.685181 200.158249,507.258118 188.678146,503.756104 
	C175.777588,499.820770 163.445084,494.023315 151.338165,489.015137 
	C156.762222,488.674408 161.731552,488.523071 166.661041,487.997864 
	C175.665039,487.038544 181.863052,480.375427 181.959320,471.362946 
	C182.104904,457.732269 182.136673,444.096954 181.948837,430.467285 
	C181.816238,420.845551 174.619171,414.039978 164.997498,413.974518 
	C158.015640,413.927002 151.033447,413.928253 144.040039,413.445068 
	C144.019714,404.989044 144.010773,396.995728 144.470062,388.992859 
	C152.227417,388.665222 159.539230,388.603943 166.799866,387.962982 
	C175.520172,387.193237 181.801422,380.423340 181.942856,371.685303 
	C182.115219,361.035767 181.901093,350.379913 182.014862,339.445984 
	C184.147491,337.162720 186.123077,335.163910 188.090530,333.157104 
	C192.247284,328.917297 193.082581,325.261536 190.697037,321.782379 
	C188.310760,318.302155 184.586319,317.810486 178.940887,320.097473 
	C174.153122,315.446564 168.875320,313.500061 162.456390,313.884155 
	C156.342682,314.249878 150.187805,313.927704 144.039764,313.445251 
	C144.019623,304.989136 144.010727,296.995789 144.470062,288.992859 
	C152.227432,288.665222 159.539230,288.603912 166.799881,287.963013 
	C175.520157,287.193268 181.801422,280.423309 181.942856,271.685272 
	C182.115219,261.035706 181.901108,250.379868 182.014893,239.445892 
	C184.147537,237.162674 186.123138,235.163895 188.090576,233.157120 
	C192.247269,228.917343 193.082535,225.261551 190.697037,221.782394 
	C188.310806,218.302155 184.586456,217.810486 178.940918,220.097412 
	C174.153107,215.446594 168.875290,213.500107 162.456390,213.884109 
	C156.342682,214.249847 150.187805,213.927689 144.039764,213.445221 
	C144.019623,204.989090 144.010727,196.995682 144.470062,188.992752 
	C152.227432,188.665207 159.539261,188.603943 166.799911,187.963028 
	C175.520096,187.193268 181.801453,180.423203 181.942871,171.685287 
	C182.115219,161.035690 181.901108,150.379868 182.014893,139.445892 
	C184.147522,137.162659 186.123123,135.163895 188.090576,133.157120 
	C192.247284,128.917313 193.082550,125.261536 190.697037,121.782379 
	C188.310822,118.302193 184.586395,117.810501 178.940918,120.097412 
	C174.153076,115.446655 168.875290,113.500076 162.456390,113.884079 
	C156.342682,114.249817 150.187805,113.927681 144.039780,113.445221 
	C144.024261,102.380676 144.019989,91.778893 144.428192,81.106262 
	C156.229477,80.445770 164.383911,72.522957 164.710938,60.935738 
	C165.029312,49.654236 164.688919,38.354137 164.743515,26.658497 
	C164.900497,25.147512 164.951721,24.040241 165.470337,22.963581 
	C176.957321,22.973696 187.976898,22.953197 199.085388,23.341000 
	C199.237091,24.852795 199.299881,25.956293 199.294342,27.519833 
	C199.217728,38.798298 199.029434,49.620388 199.249603,60.434158 
	C199.490921,72.287300 208.073166,80.935852 219.209351,80.999199 
	C230.763397,81.064934 239.483353,72.596558 239.736633,60.504860 
	C239.970032,49.362900 239.691330,38.210205 239.743927,26.658546 
	C239.900726,25.147619 239.951843,24.040388 240.470291,22.963680 
	C251.957428,22.973679 262.977203,22.953152 274.085754,23.340958 
	C274.237244,24.852789 274.299957,25.956285 274.294373,27.519829 
	C274.217743,38.798302 274.029419,49.620396 274.249573,60.434166 
	C274.490875,72.287209 283.073242,80.935837 294.209351,80.999199 
	C305.763397,81.064934 314.483246,72.596642 314.736603,60.504848 
	C314.970062,49.362888 314.691345,38.210194 314.743927,26.658535 
	C314.900726,25.147612 314.951843,24.040386 315.470306,22.963684 
	C326.957458,22.973679 337.977234,22.953152 349.085754,23.340960 
	C349.237213,24.852791 349.299927,25.956287 349.294312,27.519831 
	C349.217712,38.798302 349.029419,49.620396 349.249573,60.434166 
	C349.490875,72.287209 358.073242,80.935837 369.209351,80.999191 
	C380.763397,81.064926 389.483276,72.596649 389.736633,60.504848 
	C389.970093,49.362888 389.691345,38.210194 389.743958,26.658537 
	C389.900940,25.147652 389.952240,24.040459 390.471069,22.963737 
	C403.742432,22.995943 416.572784,23.494686 429.340027,22.812469 
	C436.963318,22.405117 447.404877,33.028519 447.198456,40.649490 
	C446.663055,60.417156 447.108887,80.211403 447.061066,100.324493 
	C439.416687,108.395782 431.958008,116.221344 424.313477,123.860970 
	C410.887268,137.278610 397.347290,150.582428 383.396484,163.944916 
	C329.293762,163.959396 275.649475,163.961456 222.005203,163.967880 
	C214.751877,163.968735 212.141983,165.756973 212.010422,170.775757 
	C211.881287,175.702362 215.327179,178.558029 221.901321,178.957184 
	C222.565399,178.997482 223.233780,178.968765 223.900162,178.968658 
	C272.213287,178.961212 320.526398,178.953415 368.706696,179.244156 
	C364.397430,183.757828 360.221039,187.973022 355.783264,192.304108 
	C355.267029,192.909271 355.012177,193.398544 354.739929,193.846954 
	C354.722595,193.806107 354.641541,193.769958 354.331818,193.880386 
	C343.806305,204.026932 333.590515,214.063049 322.877502,224.060165 
	C288.398651,224.003296 254.417023,223.985260 220.435410,223.968658 
	C219.769211,223.968323 219.100449,223.950089 218.437225,223.998901 
	C214.776794,224.268341 212.539154,226.236282 212.082825,229.851120 
	C211.650238,233.277954 212.636215,236.345917 216.203217,237.497650 
	C218.841293,238.349442 221.702682,238.895157 224.467804,238.908371 
	C252.451675,239.042068 280.436188,239.037949 308.243652,239.373230 
	C301.725189,246.142715 295.383636,252.611481 288.760620,259.245331 
	C287.659454,260.931549 286.839752,262.452698 285.549500,263.971008 
	C266.138672,263.967438 247.198456,263.965179 228.258224,263.967499 
	C224.935516,263.967896 221.605408,263.852600 218.292084,264.034363 
	C214.641937,264.234589 212.476456,266.357544 212.070892,269.971649 
	C211.684509,273.414764 212.739502,276.396362 216.290375,277.542694 
	C218.769958,278.343140 221.449844,278.892426 224.044266,278.908478 
	C242.319229,279.021484 260.595215,278.967072 278.788269,279.304504 
	C276.380463,284.720367 274.055267,289.797852 271.479431,295.093384 
	C266.446350,304.868683 261.663879,314.425964 256.420227,323.975220 
	C243.802872,323.968567 231.646667,323.987274 219.490524,323.961487 
	C215.438858,323.952911 212.657181,325.647766 212.094421,329.794769 
	C211.528275,333.966949 213.245789,336.983124 217.546814,337.997742 
	C219.626511,338.488342 221.782166,338.925903 223.904068,338.928741 
	C264.368927,338.982971 304.833984,338.996490 345.298737,338.903687 
	C347.885681,338.897766 350.759216,338.487671 352.964569,337.284882 
	C354.719971,336.327515 356.383057,334.030426 356.816650,332.049927 
	C357.906921,327.070374 354.681000,323.999573 348.805847,323.984009 
	C331.654144,323.938538 314.502045,324.005249 297.350739,323.911011 
	C295.480316,323.900757 293.614075,323.129028 291.974487,322.473328 
	C293.591339,321.318176 294.979553,320.400177 296.719147,319.397095 
	C308.712006,313.251129 320.353516,307.190186 332.270020,300.933777 
	C339.966797,293.439911 347.388580,286.141510 355.290009,278.882416 
	C371.391754,278.937469 387.013855,278.972961 402.635864,278.939453 
	C404.268433,278.935944 405.928955,278.648834 407.526978,278.279114 
	C412.969421,277.019958 414.611542,274.815063 413.997528,269.599884 
	C413.448090,264.932983 410.314270,263.911377 406.182526,263.933411 
	C394.051514,263.998169 381.919617,263.904816 369.945557,263.574890 
	C378.728058,254.498596 387.353058,245.720718 396.281281,236.807861 
	C398.204895,234.997330 399.797699,233.294006 401.450043,231.650604 
	C416.560883,216.621643 431.682037,201.603104 446.864960,187.072617 
	C446.953186,247.228149 446.968597,306.892578 447.004700,366.557037 
	C447.016113,385.388367 447.082855,404.219604 446.986389,423.368591 
	C436.487640,434.374451 426.270416,445.208069 415.682465,455.666290 
	C412.306458,459.000885 407.946228,461.339020 403.787689,463.846924 
	C388.268158,463.695801 372.997437,463.929504 357.726440,463.947296 
	C312.900635,463.999512 268.074768,463.965820 223.248917,463.966644 
	C221.749222,463.966675 220.248337,463.940765 218.750046,463.989380 
	C215.100525,464.107910 212.701538,465.931366 212.129868,469.546143 
	C211.517548,473.417969 212.778168,476.636078 216.841934,477.759064 
	C219.522415,478.499817 222.382492,478.916138 225.163086,478.920837 
	C277.487183,479.009277 329.811432,479.014404 381.980438,479.363525 
	C380.604095,480.461884 379.428741,481.320404 378.155090,481.992737 
	C350.385803,496.651184 321.433960,507.715912 289.929962,511.077942 
	C289.226288,511.153015 288.640686,512.334595 288.000000,513.000000 
M340.500000,378.969025 
	C360.824585,378.969025 381.149323,379.005432 401.473572,378.924316 
	C404.099335,378.913849 407.047272,378.919556 409.251343,377.773865 
	C411.260040,376.729675 413.426697,374.313690 413.830261,372.181793 
	C414.899414,366.533844 412.262451,363.979462 406.276031,363.977905 
	C344.302673,363.961731 282.329346,363.967712 220.356003,363.968842 
	C219.689743,363.968872 219.020126,363.946472 218.357803,364.002441 
	C214.698349,364.311707 212.499664,366.308228 212.075012,369.930573 
	C211.671051,373.376312 212.705963,376.406952 216.277222,377.529785 
	C218.923828,378.361969 221.783371,378.903961 224.549576,378.910248 
	C262.866241,378.997162 301.183136,378.968994 340.500000,378.969025 
M314.500000,123.965958 
	C283.700592,123.966049 252.901199,123.964828 222.101807,123.970161 
	C220.604675,123.970421 218.712997,123.463554 217.692551,124.176651 
	C215.571823,125.658676 212.639557,127.653038 212.399384,129.711929 
	C212.123886,132.073547 213.774979,135.592621 215.742645,137.032623 
	C217.903976,138.614365 221.378021,138.887665 224.282379,138.895538 
	C264.404541,139.004272 304.527069,138.975769 344.649475,138.946991 
	C346.458832,138.945694 348.322540,138.842422 350.066956,138.408722 
	C355.373352,137.089432 357.692627,134.131454 356.927094,129.742996 
	C356.098297,124.991669 352.762848,123.896904 348.463379,123.934837 
	C337.476349,124.031776 326.487885,123.966347 314.500000,123.965958 
M308.500000,438.969025 
	C320.653259,438.968994 332.807129,439.032928 344.959259,438.915314 
	C347.404510,438.891663 349.954895,438.505402 352.260956,437.714935 
	C356.794525,436.160919 358.849060,430.823242 355.824585,427.268158 
	C354.207825,425.367767 350.773621,424.113586 348.152740,424.101837 
	C305.700378,423.911194 263.246918,423.966766 220.793716,423.968231 
	C219.961441,423.968262 219.124023,423.931641 218.297775,424.007477 
	C214.645172,424.342896 212.472000,426.359344 212.069794,429.984009 
	C211.686417,433.439026 212.750778,436.443451 216.320862,437.548370 
	C218.970459,438.368408 221.825668,438.900452 224.591599,438.910156 
	C252.227448,439.007111 279.863800,438.968964 308.500000,438.969025 
z"/>
<path fill="#000000" opacity="1.000000" stroke="none" 
	d="
M150.865463,489.035950 
	C163.445084,494.023315 175.777588,499.820770 188.678146,503.756104 
	C200.158249,507.258118 212.270081,508.685181 224.091476,511.085419 
	C224.657318,511.200287 225.110458,511.870178 225.308044,512.640869 
	C150.370895,513.000000 75.741783,513.000000 1.056336,513.000000 
	C1.056336,342.456757 1.056336,171.913483 1.056336,1.000000 
	C45.353542,1.000000 89.708115,1.000000 134.656250,1.345992 
	C134.755600,2.332597 134.391327,3.183342 133.747253,3.581632 
	C126.522942,8.049183 123.531960,14.610121 123.528778,22.962803 
	C110.260361,22.995655 97.432037,23.500422 84.668388,22.809832 
	C77.033409,22.396734 66.640854,33.060841 66.798706,40.636120 
	C67.300751,64.728775 66.921555,88.839790 66.571960,113.077225 
	C51.918125,130.945526 40.363197,150.335892 31.265863,171.258087 
	C20.515980,195.980881 13.787377,221.815506 12.246140,248.603851 
	C10.866914,272.576263 11.504506,296.638214 16.947201,320.326782 
	C23.223518,347.643616 33.245701,373.419556 48.126564,397.154938 
	C53.776035,406.165985 60.594261,414.444275 67.018478,423.377136 
	C69.735664,426.655365 72.390472,429.550354 74.879082,432.581757 
	C84.198654,443.934113 95.228081,453.417694 107.087776,462.462097 
	C111.767799,465.870026 116.323502,468.956848 121.018494,472.363342 
	C122.756691,473.492035 124.355614,474.301086 126.079117,475.437500 
	C134.424286,480.188538 142.644867,484.612244 150.865463,489.035950 
z"/>
<path fill="#000000" opacity="1.000000" stroke="none" 
	d="
M288.468658,513.000000 
	C288.640686,512.334595 289.226288,511.153015 289.929962,511.077942 
	C321.433960,507.715912 350.385803,496.651184 378.155090,481.992737 
	C379.428741,481.320404 380.604095,480.461884 382.339722,479.355560 
	C383.937195,478.351135 385.061707,477.739502 386.096222,477.001709 
	C392.088043,472.728699 398.058624,468.425873 404.036377,464.133118 
	C407.946228,461.339020 412.306458,459.000885 415.682465,455.666290 
	C426.270416,445.208069 436.487640,434.374451 447.295898,423.234985 
	C455.783997,411.018738 464.663452,399.729736 471.671906,387.379028 
	C482.625092,368.076752 490.734772,347.453125 495.693817,325.700531 
	C499.255554,310.077118 502.070953,294.342407 501.951935,278.262665 
	C501.853882,265.016846 502.244751,251.669754 500.743439,238.559418 
	C499.242523,225.452255 496.340118,212.395447 492.814026,199.659317 
	C488.778961,185.085068 483.845673,170.698593 476.087463,157.381409 
	C482.303528,151.151733 488.056793,144.875992 494.387909,139.250549 
	C502.723541,131.843994 504.168640,114.195885 499.906067,105.649841 
	C499.290588,104.060272 498.870697,102.527802 497.874939,101.644600 
	C493.503998,97.767715 490.856293,91.633202 483.870789,90.545120 
	C480.394012,89.473724 477.130615,88.273476 473.809875,88.085098 
	C462.964630,87.469879 454.352844,92.232544 447.163086,99.995041 
	C447.108887,80.211403 446.663055,60.417156 447.198456,40.649490 
	C447.404877,33.028519 436.963318,22.405117 429.340027,22.812469 
	C416.572784,23.494686 403.742432,22.995943 390.467041,22.533485 
	C390.334930,14.355578 387.255676,8.380956 380.959473,3.930051 
	C380.063568,3.296734 379.641418,1.993295 379.000000,1.000005 
	C423.644226,1.000000 468.288452,1.000000 512.966309,1.000000 
	C512.966309,171.558502 512.966309,342.117035 512.966309,513.000000 
	C438.312744,513.000000 363.625031,513.000000 288.468658,513.000000 
z"/>
<path fill="#6D5676" opacity="1.000000" stroke="none" 
	d="
M199.362671,27.059792 
	C199.299881,25.956293 199.237091,24.852795 199.089447,22.910233 
	C198.633484,14.340225 201.748398,8.385191 208.037155,3.932178 
	C208.933899,3.297206 209.357437,1.993956 210.000000,0.999998 
	C216.021149,1.000000 222.042297,1.000000 228.406525,1.345920 
	C229.243271,2.331829 229.607086,3.181867 230.250504,3.579633 
	C237.477402,8.047376 240.440506,14.623853 240.002945,22.933157 
	C239.951843,24.040388 239.900726,25.147619 239.436981,26.751560 
	C238.527618,28.067669 238.014175,28.877439 237.536713,29.707911 
	C228.916229,44.701782 210.475159,44.856323 201.630112,30.025301 
	C200.996964,28.963644 200.124084,28.044950 199.362671,27.059792 
z"/>
<path fill="#6D5676" opacity="1.000000" stroke="none" 
	d="
M123.996094,22.931561 
	C123.531960,14.610121 126.522942,8.049183 133.747253,3.581632 
	C134.391327,3.183342 134.755600,2.332597 135.124908,1.345992 
	C141.021149,1.000000 147.042297,1.000000 153.406830,1.345971 
	C154.243866,2.331891 154.607712,3.181840 155.251099,3.579635 
	C162.477509,8.047560 165.441208,14.623568 165.002945,22.932968 
	C164.951721,24.040241 164.900497,25.147512 164.436661,26.751644 
	C163.527466,28.068008 163.014236,28.877954 162.536774,29.708448 
	C153.916443,44.701817 135.476746,44.856129 126.630119,30.025629 
	C125.997490,28.965097 125.122871,28.048916 124.255463,26.661629 
	C124.098801,25.148951 124.047447,24.040255 123.996094,22.931561 
z"/>
<path fill="#6D5676" opacity="1.000000" stroke="none" 
	d="
M274.362671,27.059782 
	C274.299957,25.956285 274.237244,24.852789 274.089600,22.910198 
	C273.633392,14.340109 276.748444,8.385156 283.037201,3.932171 
	C283.933929,3.297196 284.357483,1.993961 285.000000,1.000003 
	C291.021149,1.000000 297.042297,1.000000 303.406555,1.345927 
	C304.243286,2.331847 304.607117,3.181903 305.250519,3.579661 
	C312.477417,8.047399 315.440460,14.623880 315.002930,22.933161 
	C314.951843,24.040386 314.900726,25.147612 314.436981,26.751549 
	C313.527618,28.067646 313.014191,28.877413 312.536713,29.707874 
	C303.915955,44.702038 285.475189,44.856560 276.630096,30.025251 
	C275.996948,28.963606 275.124054,28.044931 274.362671,27.059782 
z"/>
<path fill="#6D5676" opacity="1.000000" stroke="none" 
	d="
M378.531738,1.000005 
	C379.641418,1.993295 380.063568,3.296734 380.959473,3.930051 
	C387.255676,8.380956 390.334930,14.355578 389.999451,22.503016 
	C389.952240,24.040459 389.900940,25.147652 389.436981,26.751545 
	C388.527618,28.067633 388.014130,28.877390 387.536652,29.707846 
	C378.915833,44.702026 360.475220,44.856590 351.630096,30.025265 
	C350.996948,28.963612 350.124054,28.044930 349.362640,27.059782 
	C349.299927,25.956287 349.237213,24.852791 349.089569,22.910198 
	C348.633392,14.340109 351.748444,8.385159 358.037170,3.932148 
	C358.933899,3.297170 359.357452,1.993943 360.000000,0.999994 
	C366.021149,1.000000 372.042297,1.000000 378.531738,1.000005 
z"/>
<path fill="#000000" opacity="1.000000" stroke="none" 
	d="
M359.531311,0.999994 
	C359.357452,1.993943 358.933899,3.297170 358.037170,3.932148 
	C351.748444,8.385159 348.633392,14.340109 349.000824,22.501863 
	C337.977234,22.953152 326.957458,22.973679 315.470337,22.963684 
	C315.440460,14.623880 312.477417,8.047399 305.250519,3.579661 
	C304.607117,3.181903 304.243286,2.331847 303.874817,1.345927 
	C322.354218,1.000000 340.708466,1.000000 359.531311,0.999994 
z"/>
<path fill="#000000" opacity="1.000000" stroke="none" 
	d="
M284.531342,1.000003 
	C284.357483,1.993961 283.933929,3.297196 283.037201,3.932171 
	C276.748444,8.385156 273.633392,14.340109 274.000824,22.501863 
	C262.977203,22.953152 251.957428,22.973679 240.470291,22.963680 
	C240.440506,14.623853 237.477402,8.047376 230.250504,3.579633 
	C229.607086,3.181867 229.243271,2.331829 228.874786,1.345920 
	C247.354233,1.000000 265.708466,1.000000 284.531342,1.000003 
z"/>
<path fill="#000000" opacity="1.000000" stroke="none" 
	d="
M165.470337,22.963581 
	C165.441208,14.623568 162.477509,8.047560 155.251099,3.579635 
	C154.607712,3.181840 154.243866,2.331891 153.875092,1.345971 
	C172.354233,1.000000 190.708450,1.000000 209.531342,0.999998 
	C209.357437,1.993956 208.933899,3.297206 208.037155,3.932178 
	C201.748398,8.385191 198.633484,14.340225 199.000519,22.501934 
	C187.976898,22.953197 176.957321,22.973696 165.470337,22.963581 
z"/>
<path fill="#D3DCFB" opacity="1.000000" stroke="none" 
	d="
M123.528778,22.962803 
	C124.047447,24.040255 124.098801,25.148951 124.188797,27.121422 
	C124.215981,38.439991 124.130989,48.895351 124.212090,59.349422 
	C124.309067,71.848724 131.707962,79.927757 144.015717,81.177101 
	C144.019989,91.778893 144.024261,102.380676 143.566162,113.474167 
	C136.784180,113.973862 130.464493,113.965187 124.144958,113.993706 
	C114.453072,114.037437 107.203239,120.739159 107.057404,130.325577 
	C106.847443,144.125900 106.853378,157.934021 107.057968,171.734512 
	C107.190605,180.681519 113.247391,187.154617 122.172646,187.949020 
	C129.422852,188.594330 136.723526,188.672562 144.001831,189.002289 
	C144.010727,196.995682 144.019623,204.989090 143.566162,213.474182 
	C136.784180,213.973846 130.464478,213.965210 124.144951,213.993698 
	C114.453148,214.037384 107.203239,220.739182 107.057404,230.325577 
	C106.847458,244.125900 106.853363,257.934021 107.057983,271.734528 
	C107.190636,280.681641 113.247459,287.154724 122.172646,287.949036 
	C129.422867,288.594299 136.723541,288.672668 144.001831,289.002441 
	C144.010727,296.995789 144.019623,304.989136 143.566162,313.474182 
	C136.784180,313.973877 130.464493,313.965393 124.144966,313.993744 
	C114.453514,314.037170 107.203247,320.739166 107.057404,330.325592 
	C106.847443,344.125885 106.853363,357.934021 107.057983,371.734497 
	C107.190643,380.681641 113.247452,387.154724 122.172653,387.949005 
	C129.422867,388.594269 136.723541,388.672668 144.001831,389.002441 
	C144.010773,396.995728 144.019714,404.989044 143.566376,413.474060 
	C136.959824,413.973602 130.815536,413.975281 124.671280,413.990631 
	C113.930893,414.017487 107.064011,420.893768 107.008316,431.751862 
	C106.956352,441.881409 106.975578,452.011261 106.963463,462.140991 
	C95.228081,453.417694 84.198654,443.934113 74.879082,432.581757 
	C72.390472,429.550354 69.735664,426.655365 67.058975,422.908997 
	C66.972023,319.892609 66.983528,217.664978 66.989883,115.437370 
	C66.989937,114.606155 66.920097,113.774933 66.882889,112.943718 
	C66.921555,88.839790 67.300751,64.728775 66.798706,40.636120 
	C66.640854,33.060841 77.033409,22.396734 84.668388,22.809832 
	C97.432037,23.500422 110.260361,22.995655 123.528778,22.962803 
z"/>
<path fill="#73C3F9" opacity="1.000000" stroke="none" 
	d="
M475.881805,157.624680 
	C483.845673,170.698593 488.778961,185.085068 492.814026,199.659317 
	C496.340118,212.395447 499.242523,225.452255 500.743439,238.559418 
	C502.244751,251.669754 501.853882,265.016846 501.951935,278.262665 
	C502.070953,294.342407 499.255554,310.077118 495.693817,325.700531 
	C490.734772,347.453125 482.625092,368.076752 471.671906,387.379028 
	C464.663452,399.729736 455.783997,411.018738 447.433807,422.917297 
	C447.082855,404.219604 447.016113,385.388367 447.004700,366.557037 
	C446.968597,306.892578 446.953186,247.228149 447.006317,186.791718 
	C456.682526,176.554703 466.282166,167.089691 475.881805,157.624680 
z"/>
<path fill="#FFC83A" opacity="1.000000" stroke="none" 
	d="
M484.057922,90.879639 
	C490.856293,91.633202 493.503998,97.767715 497.874939,101.644600 
	C498.870697,102.527802 499.290588,104.060272 499.573669,105.695267 
	C497.891357,107.121399 496.499725,108.034889 495.346497,109.187042 
	C454.287292,150.207855 413.248688,191.249283 372.219696,232.300339 
	C371.104828,233.415787 370.127594,234.668777 368.807770,236.175461 
	C375.333923,240.037979 381.727386,239.318954 388.112152,238.426285 
	C390.751678,238.057236 393.357147,237.444641 395.978088,236.942841 
	C387.353058,245.720718 378.728058,254.498596 369.651489,263.724731 
	C364.403412,269.063049 359.606903,273.953064 354.810364,278.843079 
	C347.388580,286.141510 339.966797,293.439911 331.982391,300.634094 
	C329.586884,293.038177 327.753998,285.546539 326.225372,277.899628 
	C340.042603,263.992371 353.555542,250.240372 365.417542,238.168518 
	C361.137268,233.832428 356.676178,229.313141 351.737091,224.309647 
	C348.509796,227.654068 343.979095,232.517563 339.265900,237.197266 
	C330.180206,246.218384 320.991455,255.135635 311.484711,264.034424 
	C306.623749,262.640350 302.166260,261.127991 297.607239,260.042114 
	C294.833221,259.381378 291.902466,259.378601 289.042114,259.080261 
	C295.383636,252.611481 301.725189,246.142715 308.514618,239.224442 
	C313.766571,233.883026 318.570648,228.991089 323.374756,224.099167 
	C333.590515,214.063049 343.806305,204.026932 354.398712,194.261444 
	C354.235321,195.913696 353.691742,197.293976 353.155853,198.677216 
	C350.151550,206.431824 350.144775,214.016022 354.274353,221.862793 
	C355.596527,220.687164 356.615601,219.869705 357.534058,218.951599 
	C398.744568,177.756668 439.953033,136.559692 481.116150,95.317474 
	C482.345154,94.086121 483.088257,92.369835 484.057922,90.879639 
z"/>
<path fill="#FFDD40" opacity="1.000000" stroke="none" 
	d="
M396.281281,236.807861 
	C393.357147,237.444641 390.751678,238.057236 388.112152,238.426285 
	C381.727386,239.318954 375.333923,240.037979 368.807770,236.175461 
	C370.127594,234.668777 371.104828,233.415787 372.219696,232.300339 
	C413.248688,191.249283 454.287292,150.207855 495.346497,109.187042 
	C496.499725,108.034889 497.891357,107.121399 499.504211,106.051193 
	C504.168640,114.195885 502.723541,131.843994 494.387909,139.250549 
	C488.056793,144.875992 482.303528,151.151733 476.087463,157.381409 
	C466.282166,167.089691 456.682526,176.554703 446.941528,186.300629 
	C431.682037,201.603104 416.560883,216.621643 401.450043,231.650604 
	C399.797699,233.294006 398.204895,234.997330 396.281281,236.807861 
z"/>
<path fill="#FFDD40" opacity="1.000000" stroke="none" 
	d="
M483.870789,90.545120 
	C483.088257,92.369835 482.345154,94.086121 481.116150,95.317474 
	C439.953033,136.559692 398.744568,177.756668 357.534058,218.951599 
	C356.615601,219.869705 355.596527,220.687164 354.274353,221.862793 
	C350.144775,214.016022 350.151550,206.431824 353.155853,198.677216 
	C353.691742,197.293976 354.235321,195.913696 354.708435,194.151001 
	C354.641541,193.769958 354.722595,193.806107 355.014374,193.749268 
	C355.552307,193.191040 355.798462,192.689621 356.044617,192.188217 
	C360.221039,187.973022 364.397430,183.757828 369.010620,179.098083 
	C374.249939,173.746994 379.052429,168.840439 383.854950,163.933899 
	C397.347290,150.582428 410.887268,137.278610 424.313477,123.860970 
	C431.958008,116.221344 439.416687,108.395782 447.061066,100.324493 
	C454.352844,92.232544 462.964630,87.469879 473.809875,88.085098 
	C477.130615,88.273476 480.394012,89.473724 483.870789,90.545120 
z"/>
<path fill="#BEC8F7" opacity="1.000000" stroke="none" 
	d="
M144.470062,388.992859 
	C136.723541,388.672668 129.422867,388.594269 122.172653,387.949005 
	C113.247452,387.154724 107.190643,380.681641 107.057983,371.734497 
	C106.853363,357.934021 106.847443,344.125885 107.057404,330.325592 
	C107.203247,320.739166 114.453514,314.037170 124.144966,313.993744 
	C130.464493,313.965393 136.784180,313.973877 143.577423,313.936920 
	C150.187805,313.927704 156.342682,314.249878 162.456390,313.884155 
	C168.875320,313.500061 174.153122,315.446564 178.755188,320.367188 
	C174.973450,324.636353 171.058746,328.460785 167.057632,331.870300 
	C165.402267,330.626099 163.862198,329.153961 162.259201,329.081909 
	C156.183655,328.808807 150.087708,328.989197 143.530884,328.995667 
	C137.736679,328.990875 132.406998,329.115936 127.086746,328.945618 
	C123.568459,328.832977 121.898102,329.943298 121.947464,333.759125 
	C122.096008,345.240692 122.076149,356.726166 121.961922,368.208496 
	C121.918587,372.563812 123.940338,374.148163 128.080215,374.022186 
	C133.401276,373.860260 138.729568,373.936218 144.517273,373.929382 
	C150.104752,373.950470 155.233444,374.072693 160.353561,373.915894 
	C164.610474,373.785522 167.647705,372.420502 167.080505,367.086456 
	C166.645630,362.996887 166.935135,358.830261 167.062622,354.415985 
	C172.099869,349.331635 176.977005,344.529205 181.854126,339.726807 
	C181.901093,350.379913 182.115219,361.035767 181.942856,371.685303 
	C181.801422,380.423340 175.520172,387.193237 166.799866,387.962982 
	C159.539230,388.603943 152.227417,388.665222 144.470062,388.992859 
z"/>
<path fill="#BEC8F7" opacity="1.000000" stroke="none" 
	d="
M144.470062,188.992752 
	C136.723526,188.672562 129.422852,188.594330 122.172646,187.949020 
	C113.247391,187.154617 107.190605,180.681519 107.057968,171.734512 
	C106.853378,157.934021 106.847443,144.125900 107.057404,130.325577 
	C107.203239,120.739159 114.453072,114.037437 124.144958,113.993706 
	C130.464493,113.965187 136.784180,113.973862 143.577423,113.936920 
	C150.187805,113.927681 156.342682,114.249817 162.456390,113.884079 
	C168.875290,113.500076 174.153076,115.446655 178.755219,120.367126 
	C174.973480,124.636292 171.058762,128.460724 167.057617,131.870239 
	C165.402237,130.626099 163.862198,129.153992 162.259171,129.081863 
	C156.183640,128.808578 150.087692,128.988785 143.530884,128.995193 
	C137.736694,128.990616 132.406998,129.115662 127.086761,128.945480 
	C123.568642,128.832962 121.898087,129.943192 121.947464,133.759079 
	C122.096039,145.240646 122.076141,156.726105 121.961945,168.208466 
	C121.918633,172.563690 123.940186,174.148163 128.080215,174.022110 
	C133.401260,173.860062 138.729568,173.936157 144.517273,173.929367 
	C150.104752,173.950470 155.233429,174.072723 160.353546,173.915894 
	C164.610489,173.785522 167.647675,172.420456 167.080505,167.086456 
	C166.645645,162.996872 166.935165,158.830261 167.062653,154.415970 
	C172.099915,149.331604 176.977036,144.529160 181.854156,139.726730 
	C181.901108,150.379868 182.115219,161.035690 181.942871,171.685287 
	C181.801453,180.423203 175.520096,187.193268 166.799911,187.963028 
	C159.539261,188.603943 152.227432,188.665207 144.470062,188.992752 
z"/>
<path fill="#BEC8F7" opacity="1.000000" stroke="none" 
	d="
M144.470062,288.992859 
	C136.723541,288.672668 129.422867,288.594299 122.172646,287.949036 
	C113.247459,287.154724 107.190636,280.681641 107.057983,271.734528 
	C106.853363,257.934021 106.847458,244.125900 107.057404,230.325577 
	C107.203239,220.739182 114.453148,214.037384 124.144951,213.993698 
	C130.464478,213.965210 136.784180,213.973846 143.577423,213.936920 
	C150.187805,213.927689 156.342682,214.249847 162.456390,213.884109 
	C168.875290,213.500107 174.153107,215.446594 178.755219,220.367126 
	C174.973495,224.636307 171.058762,228.460724 167.057617,231.870239 
	C165.402237,230.626099 163.862198,229.154007 162.259171,229.081894 
	C156.183640,228.808609 150.087692,228.988800 143.530884,228.995209 
	C137.736679,228.990616 132.406998,229.115662 127.086746,228.945465 
	C123.568619,228.832962 121.898087,229.943222 121.947464,233.759094 
	C122.096039,245.240662 122.076157,256.726166 121.961922,268.208496 
	C121.918594,272.563812 123.940346,274.148193 128.080215,274.022217 
	C133.401276,273.860260 138.729568,273.936218 144.517273,273.929382 
	C150.104752,273.950470 155.233444,274.072693 160.353561,273.915894 
	C164.610458,273.785492 167.647705,272.420502 167.080475,267.086456 
	C166.645599,262.996887 166.935165,258.830261 167.062653,254.415970 
	C172.099915,249.331589 176.977036,244.529160 181.854156,239.726730 
	C181.901108,250.379868 182.115219,261.035706 181.942856,271.685272 
	C181.801422,280.423309 175.520157,287.193268 166.799881,287.963013 
	C159.539230,288.603912 152.227432,288.665222 144.470062,288.992859 
z"/>
<path fill="#BFC9F7" opacity="1.000000" stroke="none" 
	d="
M340.000000,378.968994 
	C301.183136,378.968994 262.866241,378.997162 224.549576,378.910248 
	C221.783371,378.903961 218.923828,378.361969 216.277222,377.529785 
	C212.705963,376.406952 211.671051,373.376312 212.075012,369.930573 
	C212.499664,366.308228 214.698349,364.311707 218.357803,364.002441 
	C219.020126,363.946472 219.689743,363.968872 220.356003,363.968842 
	C282.329346,363.967712 344.302673,363.961731 406.276031,363.977905 
	C412.262451,363.979462 414.899414,366.533844 413.830261,372.181793 
	C413.426697,374.313690 411.260040,376.729675 409.251343,377.773865 
	C407.047272,378.919556 404.099335,378.913849 401.473572,378.924316 
	C381.149323,379.005432 360.824585,378.969025 340.000000,378.968994 
z"/>
<path fill="#BEC8F7" opacity="1.000000" stroke="none" 
	d="
M107.087776,462.462097 
	C106.975578,452.011261 106.956352,441.881409 107.008316,431.751862 
	C107.064011,420.893768 113.930893,414.017487 124.671280,413.990631 
	C130.815536,413.975281 136.959824,413.973602 143.577759,413.936768 
	C151.033447,413.928253 158.015640,413.927002 164.997498,413.974518 
	C174.619171,414.039978 181.816238,420.845551 181.948837,430.467285 
	C182.136673,444.096954 182.104904,457.732269 181.959320,471.362946 
	C181.863052,480.375427 175.665039,487.038544 166.661041,487.997864 
	C161.731552,488.523071 156.762222,488.674408 151.338165,489.015137 
	C142.644867,484.612244 134.424286,480.188538 126.369652,475.129822 
	C132.375519,474.298828 138.215424,474.102875 144.517776,473.927368 
	C150.119888,473.948914 155.262863,474.063995 160.398254,473.916077 
	C164.722153,473.791534 167.314804,472.295166 167.120636,467.011841 
	C166.719025,456.083862 166.890106,445.129150 167.058151,434.188995 
	C167.116837,430.368622 165.865219,428.757599 161.905640,428.911133 
	C155.945496,429.142303 149.970505,428.991119 143.533173,428.997528 
	C137.764069,428.991791 132.456924,429.153625 127.165382,428.936066 
	C123.287674,428.776672 121.877884,430.247559 121.940025,434.139191 
	C122.114532,445.068573 122.048424,456.003021 121.949890,466.934326 
	C121.934517,468.640533 121.252785,470.340729 120.879196,472.043701 
	C116.323502,468.956848 111.767799,465.870026 107.087776,462.462097 
z"/>
<path fill="#BFC9F7" opacity="1.000000" stroke="none" 
	d="
M403.787689,463.846924 
	C398.058624,468.425873 392.088043,472.728699 386.096222,477.001709 
	C385.061707,477.739502 383.937195,478.351135 382.494934,479.028992 
	C329.811432,479.014404 277.487183,479.009277 225.163086,478.920837 
	C222.382492,478.916138 219.522415,478.499817 216.841934,477.759064 
	C212.778168,476.636078 211.517548,473.417969 212.129868,469.546143 
	C212.701538,465.931366 215.100525,464.107910 218.750046,463.989380 
	C220.248337,463.940765 221.749222,463.966675 223.248917,463.966644 
	C268.074768,463.965820 312.900635,463.999512 357.726440,463.947296 
	C372.997437,463.929504 388.268158,463.695801 403.787689,463.846924 
z"/>
<path fill="#BFC9F7" opacity="1.000000" stroke="none" 
	d="
M383.396484,163.944916 
	C379.052429,168.840439 374.249939,173.746994 369.143494,178.799591 
	C320.526398,178.953415 272.213287,178.961212 223.900162,178.968658 
	C223.233780,178.968765 222.565399,178.997482 221.901321,178.957184 
	C215.327179,178.558029 211.881287,175.702362 212.010422,170.775757 
	C212.141983,165.756973 214.751877,163.968735 222.005203,163.967880 
	C275.649475,163.961456 329.293762,163.959396 383.396484,163.944916 
z"/>
<path fill="#FBB989" opacity="1.000000" stroke="none" 
	d="
M325.921112,278.054871 
	C327.753998,285.546539 329.586884,293.038177 331.707397,300.829559 
	C320.353516,307.190186 308.712006,313.251129 296.588745,318.980957 
	C293.063599,305.514069 284.634033,297.900818 271.730072,294.875366 
	C274.055267,289.797852 276.380463,284.720367 278.983215,279.011444 
	C281.513855,273.577972 283.766968,268.775909 286.020081,263.973846 
	C286.839752,262.452698 287.659454,260.931549 288.760620,259.245331 
	C291.902466,259.378601 294.833221,259.381378 297.607239,260.042114 
	C302.166260,261.127991 306.623749,262.640350 311.679749,264.309937 
	C316.797394,269.116272 321.359253,273.585571 325.921112,278.054871 
z"/>
<path fill="#BFC9F7" opacity="1.000000" stroke="none" 
	d="
M315.000000,123.965912 
	C326.487885,123.966347 337.476349,124.031776 348.463379,123.934837 
	C352.762848,123.896904 356.098297,124.991669 356.927094,129.742996 
	C357.692627,134.131454 355.373352,137.089432 350.066956,138.408722 
	C348.322540,138.842422 346.458832,138.945694 344.649475,138.946991 
	C304.527069,138.975769 264.404541,139.004272 224.282379,138.895538 
	C221.378021,138.887665 217.903976,138.614365 215.742645,137.032623 
	C213.774979,135.592621 212.123886,132.073547 212.399384,129.711929 
	C212.639557,127.653038 215.571823,125.658676 217.692551,124.176651 
	C218.712997,123.463554 220.604675,123.970421 222.101807,123.970161 
	C252.901199,123.964828 283.700592,123.966049 315.000000,123.965912 
z"/>
<path fill="#BFC9F7" opacity="1.000000" stroke="none" 
	d="
M308.000000,438.968994 
	C279.863800,438.968964 252.227448,439.007111 224.591599,438.910156 
	C221.825668,438.900452 218.970459,438.368408 216.320862,437.548370 
	C212.750778,436.443451 211.686417,433.439026 212.069794,429.984009 
	C212.472000,426.359344 214.645172,424.342896 218.297775,424.007477 
	C219.124023,423.931641 219.961441,423.968262 220.793716,423.968231 
	C263.246918,423.966766 305.700378,423.911194 348.152740,424.101837 
	C350.773621,424.113586 354.207825,425.367767 355.824585,427.268158 
	C358.849060,430.823242 356.794525,436.160919 352.260956,437.714935 
	C349.954895,438.505402 347.404510,438.891663 344.959259,438.915314 
	C332.807129,439.032928 320.653259,438.968994 308.000000,438.968994 
z"/>
<path fill="#BFC9F7" opacity="1.000000" stroke="none" 
	d="
M291.745911,322.710510 
	C293.614075,323.129028 295.480316,323.900757 297.350739,323.911011 
	C314.502045,324.005249 331.654144,323.938538 348.805847,323.984009 
	C354.681000,323.999573 357.906921,327.070374 356.816650,332.049927 
	C356.383057,334.030426 354.719971,336.327515 352.964569,337.284882 
	C350.759216,338.487671 347.885681,338.897766 345.298737,338.903687 
	C304.833984,338.996490 264.368927,338.982971 223.904068,338.928741 
	C221.782166,338.925903 219.626511,338.488342 217.546814,337.997742 
	C213.245789,336.983124 211.528275,333.966949 212.094421,329.794769 
	C212.657181,325.647766 215.438858,323.952911 219.490524,323.961487 
	C231.646667,323.987274 243.802872,323.968567 256.365662,324.366058 
	C255.282715,328.251251 255.236694,331.644531 258.238861,334.302704 
	C261.431854,337.129852 264.862701,336.295502 268.350220,334.493256 
	C276.106995,330.484802 283.942505,326.628693 291.745911,322.710510 
z"/>
<path fill="#553F5C" opacity="1.000000" stroke="none" 
	d="
M349.294312,27.519829 
	C350.124054,28.044930 350.996948,28.963612 351.630096,30.025265 
	C360.475220,44.856590 378.915833,44.702026 387.536652,29.707846 
	C388.014130,28.877390 388.527618,28.067633 389.331299,27.155237 
	C389.691345,38.210194 389.970093,49.362888 389.736633,60.504848 
	C389.483276,72.596649 380.763397,81.064926 369.209351,80.999191 
	C358.073242,80.935837 349.490875,72.287209 349.249573,60.434166 
	C349.029419,49.620396 349.217712,38.798302 349.294312,27.519829 
z"/>
<path fill="#553F5C" opacity="1.000000" stroke="none" 
	d="
M274.294342,27.519829 
	C275.124054,28.044931 275.996948,28.963606 276.630096,30.025251 
	C285.475189,44.856560 303.915955,44.702038 312.536713,29.707874 
	C313.014191,28.877413 313.527618,28.067646 314.331299,27.155245 
	C314.691345,38.210194 314.970062,49.362888 314.736603,60.504848 
	C314.483246,72.596642 305.763397,81.064934 294.209351,80.999199 
	C283.073242,80.935837 274.490875,72.287209 274.249573,60.434166 
	C274.029419,49.620396 274.217743,38.798302 274.294342,27.519829 
z"/>
<path fill="#553F5C" opacity="1.000000" stroke="none" 
	d="
M199.294342,27.519835 
	C200.124084,28.044950 200.996964,28.963644 201.630112,30.025301 
	C210.475159,44.856323 228.916229,44.701782 237.536713,29.707911 
	C238.014175,28.877439 238.527618,28.067669 239.331268,27.155254 
	C239.691330,38.210205 239.970032,49.362900 239.736633,60.504860 
	C239.483353,72.596558 230.763397,81.064934 219.209351,80.999199 
	C208.073166,80.935852 199.490921,72.287300 199.249603,60.434158 
	C199.029434,49.620388 199.217728,38.798298 199.294342,27.519835 
z"/>
<path fill="#543F5C" opacity="1.000000" stroke="none" 
	d="
M144.428192,81.106262 
	C131.707962,79.927757 124.309067,71.848724 124.212090,59.349422 
	C124.130989,48.895351 124.215981,38.439991 124.294098,27.525406 
	C125.122871,28.048916 125.997490,28.965097 126.630119,30.025629 
	C135.476746,44.856129 153.916443,44.701817 162.536774,29.708448 
	C163.014236,28.877954 163.527466,28.068008 164.330917,27.155355 
	C164.688919,38.354137 165.029312,49.654236 164.710938,60.935738 
	C164.383911,72.522957 156.229477,80.445770 144.428192,81.106262 
z"/>
<path fill="#BFC9F7" opacity="1.000000" stroke="none" 
	d="
M322.877502,224.060165 
	C318.570648,228.991089 313.766571,233.883026 308.691528,238.923737 
	C280.436188,239.037949 252.451675,239.042068 224.467804,238.908371 
	C221.702682,238.895157 218.841293,238.349442 216.203217,237.497650 
	C212.636215,236.345917 211.650238,233.277954 212.082825,229.851120 
	C212.539154,226.236282 214.776794,224.268341 218.437225,223.998901 
	C219.100449,223.950089 219.769211,223.968323 220.435410,223.968658 
	C254.417023,223.985260 288.398651,224.003296 322.877502,224.060165 
z"/>
<path fill="#FE7489" opacity="1.000000" stroke="none" 
	d="
M167.144043,232.285156 
	C171.058762,228.460724 174.973495,224.636307 179.073914,220.542160 
	C184.586456,217.810486 188.310806,218.302155 190.697037,221.782394 
	C193.082535,225.261551 192.247269,228.917343 188.090576,233.157120 
	C186.123138,235.163895 184.147537,237.162674 182.014893,239.445892 
	C176.977036,244.529160 172.099915,249.331589 166.764954,254.589020 
	C163.253357,258.063324 160.206650,261.089813 157.144226,264.100311 
	C152.278137,268.883942 150.022888,269.168976 143.928223,265.491699 
	C139.128036,260.515442 134.396561,255.907043 129.853729,251.119629 
	C126.633514,247.725998 126.612175,243.632538 129.463959,240.454346 
	C132.212387,237.391342 136.357178,237.256958 140.111847,240.173325 
	C141.409760,241.181473 142.604080,242.323029 144.009430,243.677063 
	C145.792023,246.015350 147.410919,248.080215 148.679840,249.698715 
	C155.558121,243.211807 161.351074,237.748474 167.144043,232.285156 
z"/>
<path fill="#FE7489" opacity="1.000000" stroke="none" 
	d="
M167.144043,132.285156 
	C171.058762,128.460724 174.973480,124.636292 179.073898,120.542152 
	C184.586395,117.810501 188.310822,118.302193 190.697037,121.782379 
	C193.082550,125.261536 192.247284,128.917313 188.090576,133.157120 
	C186.123123,135.163895 184.147522,137.162659 182.014893,139.445892 
	C176.977036,144.529160 172.099915,149.331604 166.764954,154.589035 
	C163.253357,158.063354 160.206680,161.089859 157.144241,164.100357 
	C152.278214,168.883881 150.022827,169.168915 143.928223,165.491730 
	C139.128067,160.515457 134.396576,155.907059 129.853760,151.119629 
	C126.633507,147.725983 126.612183,143.632599 129.463989,140.454391 
	C132.212418,137.391357 136.357162,137.256943 140.111832,140.173325 
	C141.409760,141.181473 142.604080,142.323029 144.009430,143.677063 
	C145.792023,146.015350 147.410919,148.080215 148.679840,149.698700 
	C155.558121,143.211807 161.351074,137.748474 167.144043,132.285156 
z"/>
<path fill="#FE7489" opacity="1.000000" stroke="none" 
	d="
M167.144043,332.285217 
	C171.058746,328.460785 174.973450,324.636353 179.073853,320.542236 
	C184.586319,317.810486 188.310760,318.302155 190.697037,321.782379 
	C193.082581,325.261536 192.247284,328.917297 188.090530,333.157104 
	C186.123077,335.163910 184.147491,337.162720 182.014862,339.445984 
	C176.977005,344.529205 172.099869,349.331635 166.764908,354.589050 
	C163.253326,358.063354 160.206650,361.089844 157.144241,364.100372 
	C152.278137,368.883942 150.022888,369.168945 143.928223,365.491699 
	C139.128036,360.515442 134.396545,355.907013 129.853714,351.119598 
	C126.633469,347.725983 126.612183,343.632477 129.463989,340.454346 
	C132.212555,337.391296 136.357071,337.256897 140.111862,340.173401 
	C141.409790,341.181519 142.604095,342.323090 144.009430,343.677094 
	C145.792023,346.015350 147.410950,348.080200 148.679642,349.698334 
	C155.557938,343.211670 161.350983,337.748444 167.144043,332.285217 
z"/>
<path fill="#BFC9F7" opacity="1.000000" stroke="none" 
	d="
M285.549500,263.971008 
	C283.766968,268.775909 281.513855,273.577972 279.065826,278.673096 
	C260.595215,278.967072 242.319229,279.021484 224.044266,278.908478 
	C221.449844,278.892426 218.769958,278.343140 216.290375,277.542694 
	C212.739502,276.396362 211.684509,273.414764 212.070892,269.971649 
	C212.476456,266.357544 214.641937,264.234589 218.292084,264.034363 
	C221.605408,263.852600 224.935516,263.967896 228.258224,263.967499 
	C247.198456,263.965179 266.138672,263.967438 285.549500,263.971008 
z"/>
<path fill="#6E5676" opacity="1.000000" stroke="none" 
	d="
M291.974487,322.473328 
	C283.942505,326.628693 276.106995,330.484802 268.350220,334.493256 
	C264.862701,336.295502 261.431854,337.129852 258.238861,334.302704 
	C255.236694,331.644531 255.282715,328.251251 256.826843,324.374084 
	C261.663879,314.425964 266.446350,304.868683 271.479431,295.093384 
	C284.634033,297.900818 293.063599,305.514069 296.237427,319.066040 
	C294.979553,320.400177 293.591339,321.318176 291.974487,322.473328 
z"/>
<path fill="#BFC9F7" opacity="1.000000" stroke="none" 
	d="
M355.290009,278.882416 
	C359.606903,273.953064 364.403412,269.063049 369.494019,264.023193 
	C381.919617,263.904816 394.051514,263.998169 406.182526,263.933411 
	C410.314270,263.911377 413.448090,264.932983 413.997528,269.599884 
	C414.611542,274.815063 412.969421,277.019958 407.526978,278.279114 
	C405.928955,278.648834 404.268433,278.935944 402.635864,278.939453 
	C387.013855,278.972961 371.391754,278.937469 355.290009,278.882416 
z"/>
<path fill="#FFC83A" opacity="1.000000" stroke="none" 
	d="
M355.783264,192.304108 
	C355.798462,192.689621 355.552307,193.191040 355.031738,193.790131 
	C355.012177,193.398544 355.267029,192.909271 355.783264,192.304108 
z"/>
<path fill="#73C3F9" opacity="1.000000" stroke="none" 
	d="
M66.571960,113.077225 
	C66.920097,113.774933 66.989937,114.606155 66.989883,115.437370 
	C66.983528,217.664978 66.972023,319.892609 66.920280,422.588379 
	C60.594261,414.444275 53.776035,406.165985 48.126564,397.154938 
	C33.245701,373.419556 23.223518,347.643616 16.947201,320.326782 
	C11.504506,296.638214 10.866914,272.576263 12.246140,248.603851 
	C13.787377,221.815506 20.515980,195.980881 31.265863,171.258087 
	C40.363197,150.335892 51.918125,130.945526 66.571960,113.077225 
z"/>
<path fill="#D3DCFB" opacity="1.000000" stroke="none" 
	d="
M144.055344,473.906921 
	C138.215424,474.102875 132.375519,474.298828 126.245071,474.802460 
	C124.355614,474.301086 122.756691,473.492035 121.018478,472.363342 
	C121.252785,470.340729 121.934517,468.640533 121.949890,466.934326 
	C122.048424,456.003021 122.114532,445.068573 121.940025,434.139191 
	C121.877884,430.247559 123.287674,428.776672 127.165382,428.936066 
	C132.456924,429.153625 137.764069,428.991791 143.534576,429.465881 
	C144.021530,444.595093 144.038437,459.251007 144.055344,473.906921 
z"/>
<path fill="#FFB332" opacity="1.000000" stroke="none" 
	d="
M326.225372,277.899628 
	C321.359253,273.585571 316.797394,269.116272 312.040466,264.371460 
	C320.991455,255.135635 330.180206,246.218384 339.265900,237.197266 
	C343.979095,232.517563 348.509796,227.654068 351.737091,224.309647 
	C356.676178,229.313141 361.137268,233.832428 365.417542,238.168518 
	C353.555542,250.240372 340.042603,263.992371 326.225372,277.899628 
z"/>
<path fill="#D3DBFA" opacity="1.000000" stroke="none" 
	d="
M143.845734,343.403687 
	C142.604095,342.323090 141.409790,341.181519 140.111862,340.173401 
	C136.357071,337.256897 132.212555,337.391296 129.463989,340.454346 
	C126.612183,343.632477 126.633469,347.725983 129.853714,351.119598 
	C134.396545,355.907013 139.128036,360.515442 143.906708,365.951660 
	C144.041290,369.105164 144.048019,371.507446 144.054749,373.909698 
	C138.729568,373.936218 133.401276,373.860260 128.080215,374.022186 
	C123.940338,374.148163 121.918587,372.563812 121.961922,368.208496 
	C122.076149,356.726166 122.096008,345.240692 121.947464,333.759125 
	C121.898102,329.943298 123.568459,328.832977 127.086746,328.945618 
	C132.406998,329.115936 137.736679,328.990875 143.532745,329.461670 
	C143.950653,334.422577 143.898209,338.913116 143.845734,343.403687 
z"/>
<path fill="#DEECFE" opacity="1.000000" stroke="none" 
	d="
M144.009430,343.677094 
	C143.898209,338.913116 143.950653,334.422577 144.001251,329.466003 
	C150.087708,328.989197 156.183655,328.808807 162.259201,329.081909 
	C163.862198,329.153961 165.402267,330.626099 167.057632,331.870300 
	C161.350983,337.748444 155.557938,343.211670 148.679642,349.698334 
	C147.410950,348.080200 145.792023,346.015350 144.009430,343.677094 
z"/>
<path fill="#DEEDFE" opacity="1.000000" stroke="none" 
	d="
M144.517273,373.929382 
	C144.048019,371.507446 144.041290,369.105164 144.056061,366.242981 
	C150.022888,369.168945 152.278137,368.883942 157.144241,364.100372 
	C160.206650,361.089844 163.253326,358.063354 166.604767,354.870972 
	C166.935135,358.830261 166.645630,362.996887 167.080505,367.086456 
	C167.647705,372.420502 164.610474,373.785522 160.353561,373.915894 
	C155.233444,374.072693 150.104752,373.950470 144.517273,373.929382 
z"/>
<path fill="#D3DBFA" opacity="1.000000" stroke="none" 
	d="
M143.845718,143.403641 
	C142.604080,142.323029 141.409760,141.181473 140.111832,140.173325 
	C136.357162,137.256943 132.212418,137.391357 129.463989,140.454391 
	C126.612183,143.632599 126.633507,147.725983 129.853760,151.119629 
	C134.396576,155.907059 139.128067,160.515457 143.906708,165.951675 
	C144.041275,169.105194 144.048004,171.507431 144.054749,173.909683 
	C138.729568,173.936157 133.401260,173.860062 128.080215,174.022110 
	C123.940186,174.148163 121.918633,172.563690 121.961945,168.208466 
	C122.076141,156.726105 122.096039,145.240646 121.947464,133.759079 
	C121.898087,129.943192 123.568642,128.832962 127.086761,128.945480 
	C132.406998,129.115662 137.736694,128.990616 143.532730,129.461288 
	C143.950638,134.422256 143.898178,138.912949 143.845718,143.403641 
z"/>
<path fill="#DEECFE" opacity="1.000000" stroke="none" 
	d="
M144.009430,143.677063 
	C143.898178,138.912949 143.950638,134.422256 144.001251,129.465469 
	C150.087692,128.988785 156.183640,128.808578 162.259171,129.081863 
	C163.862198,129.153992 165.402237,130.626099 167.057617,131.870239 
	C161.351074,137.748474 155.558121,143.211807 148.679840,149.698700 
	C147.410919,148.080215 145.792023,146.015350 144.009430,143.677063 
z"/>
<path fill="#DEEDFE" opacity="1.000000" stroke="none" 
	d="
M144.517258,173.929367 
	C144.048004,171.507431 144.041275,169.105194 144.056061,166.243011 
	C150.022827,169.168915 152.278214,168.883881 157.144241,164.100357 
	C160.206680,161.089859 163.253357,158.063354 166.604828,154.870972 
	C166.935165,158.830261 166.645645,162.996872 167.080505,167.086456 
	C167.647675,172.420456 164.610489,173.785522 160.353546,173.915894 
	C155.233429,174.072723 150.104752,173.950470 144.517258,173.929367 
z"/>
<path fill="#D3DBFA" opacity="1.000000" stroke="none" 
	d="
M143.845718,243.403641 
	C142.604080,242.323029 141.409760,241.181473 140.111847,240.173325 
	C136.357178,237.256958 132.212387,237.391342 129.463959,240.454346 
	C126.612175,243.632538 126.633514,247.725998 129.853729,251.119629 
	C134.396561,255.907043 139.128036,260.515442 143.906708,265.951660 
	C144.041290,269.105164 144.048019,271.507446 144.054749,273.909729 
	C138.729568,273.936218 133.401276,273.860260 128.080215,274.022217 
	C123.940346,274.148193 121.918594,272.563812 121.961922,268.208496 
	C122.076157,256.726166 122.096039,245.240662 121.947464,233.759094 
	C121.898087,229.943222 123.568619,228.832962 127.086746,228.945465 
	C132.406998,229.115662 137.736679,228.990616 143.532730,229.461288 
	C143.950638,234.422256 143.898178,238.912949 143.845718,243.403641 
z"/>
<path fill="#DEECFE" opacity="1.000000" stroke="none" 
	d="
M144.009430,243.677063 
	C143.898178,238.912949 143.950638,234.422256 144.001251,229.465485 
	C150.087692,228.988800 156.183640,228.808609 162.259171,229.081894 
	C163.862198,229.154007 165.402237,230.626099 167.057617,231.870239 
	C161.351074,237.748474 155.558121,243.211807 148.679840,249.698715 
	C147.410919,248.080215 145.792023,246.015350 144.009430,243.677063 
z"/>
<path fill="#DEEDFE" opacity="1.000000" stroke="none" 
	d="
M144.517273,273.929382 
	C144.048019,271.507446 144.041290,269.105164 144.056061,266.242981 
	C150.022888,269.168976 152.278137,268.883942 157.144226,264.100311 
	C160.206650,261.089813 163.253357,258.063324 166.604797,254.870956 
	C166.935165,258.830261 166.645599,262.996887 167.080475,267.086456 
	C167.647705,272.420502 164.610458,273.785492 160.353561,273.915894 
	C155.233444,274.072693 150.104752,273.950470 144.517273,273.929382 
z"/>
<path fill="#DEEEFF" opacity="1.000000" stroke="none" 
	d="
M144.517776,473.927368 
	C144.038437,459.251007 144.021530,444.595093 144.003235,429.470825 
	C149.970505,428.991119 155.945496,429.142303 161.905640,428.911133 
	C165.865219,428.757599 167.116837,430.368622 167.058151,434.188995 
	C166.890106,445.129150 166.719025,456.083862 167.120636,467.011841 
	C167.314804,472.295166 164.722153,473.791534 160.398254,473.916077 
	C155.262863,474.063995 150.119888,473.948914 144.517776,473.927368 
z"/>
</svg>